<svg width="800px" height="800px" viewBox="0 0 24 24" fill="none" xmlns="http://www.w3.org/2000/svg">
    <path d="M3 14V10C3 6.22876 3 4.34315 4.17157 3.17157C5.34315 2 7.22876 2 11 2H13C16.7712 2 18.6569 2 19.8284 3.17157C20.4816 3.82476 20.7706 4.69989 20.8985 6M21 10V14C21 17.7712 21 19.6569 19.8284 20.8284C18.6569 22 16.7712 22 13 22H11C7.22876 22 5.34315 22 4.17157 20.8284C3.51839 20.1752 3.22937 19.3001 3.10149 18" stroke="#1C274C" stroke-width="1.5" stroke-linecap="round"/>

    <path d="M10 9.5L8 11.5L10 13.5" stroke="#1C274C" stroke-width="1.5" stroke-linecap="round" stroke-linejoin="round"/>

    <path d="M8.5 11.5H12.5C14.1569 11.5 15.5 12.8431 15.5 14.5" stroke="#1C274C" stroke-width="1.5" stroke-linecap="round" stroke-linejoin="round"/>
</svg>